# xmcd
#
# Track frame offsets:
#	150
#	15132
#	33535
#	45665
#	60397
#	76245
#	90685
#	101062
#	116805
#	133915
#	145307
#	163420
#	184397
#	202067
#
# Disc length: 2892
#
# Revision: 1
# Processed by: cddbd v1.5.1PL0 Copyright (c) Steve Scherf et al.
# Submitted via: CDex 1.40Beta8
# Normalized: r0:TDELIM( - )
#
DISCID=c70b4a0e
DTITLE=Various Artist - Deutsche Trucker Hits
DYEAR=1900
DGENRE=Country
TTITLE0=Reichling - Easy Rider
TTITLE1=Gunter Gabriel - Intercity Line 4
TTITLE2=Jorge - Oh My Darling Caroline
TTITLE3=Bohnsach - Manta
TTITLE4=Gunter Gabriel - Ohne Moos, nichts los
TTITLE5=Eckardt - Der Tramp
TTITLE6=Livingstone - Addios amigo
TTITLE7=Gunter Gabriel - Alle Mädchen ab 30
TTITLE8=Gunter Gabriel - Ich schlaf nicht gern allein
TTITLE9=Grabowski - Laß die Mädels wissen
TTITLE10=Stevens - Rocky
TTITLE11=theunissen - Mississippi
TTITLE12=Schiffkowitz - Fürstenfeld
TTITLE13=Blum - Im Wagen vor mir
EXTD=ID3G: 2
EXTT0=
EXTT1=
EXTT2=
EXTT3=
EXTT4=
EXTT5=
EXTT6=
EXTT7=
EXTT8=
EXTT9=
EXTT10=
EXTT11=
EXTT12=
EXTT13=
PLAYORDER=
